HIERARCHY
ROOT hip
{
  OFFSET 234.013 66.0973 -80.7309
  CHANNELS 6 Xposition Yposition Zposition Zrotation Xrotation Yrotation
  JOINT abdomen
  {
    OFFSET 0 20.6881 -0.73152
    CHANNELS 3 Zrotation Xrotation Yrotation
    JOINT chest
    {
      OFFSET 0 11.7043 -0.48768
      CHANNELS 3 Zrotation Xrotation Yrotation
      JOINT neck
      {
        OFFSET 0 22.1894 -2.19456
        CHANNELS 3 Zrotation Xrotation Yrotation
        JOINT head
        {
          OFFSET -0.24384 7.07133 1.2192
          CHANNELS 3 Zrotation Xrotation Yrotation
          JOINT leftEye
          {
            OFFSET 4.14528 8.04674 8.04672
            CHANNELS 3 Zrotation Xrotation Yrotation
            End Site
            {
              OFFSET 1 0 0
            }
          }
          JOINT rightEye
          {
            OFFSET -3.6576 8.04674 8.04672
            CHANNELS 3 Zrotation Xrotation Yrotation
            End Site
            {
              OFFSET 1 0 0
            }
          }
        }
      }
      JOINT rCollar
      {
        OFFSET -2.68224 19.2634 -4.8768
        CHANNELS 3 Zrotation Xrotation Yrotation
        JOINT rShldr
        {
          OFFSET -8.77824 -1.95073 1.46304
          CHANNELS 3 Zrotation Xrotation Yrotation
          JOINT rForeArm
          {
            OFFSET -28.1742 -1.7115 0.48768
            CHANNELS 3 Zrotation Xrotation Yrotation
            JOINT rHand
            {
              OFFSET -22.5879 0.773209 7.07136
              CHANNELS 3 Zrotation Xrotation Yrotation
              JOINT rThumb1
              {
                OFFSET -1.2192 -0.487915 3.41376
                CHANNELS 3 Zrotation Xrotation Yrotation
                JOINT rThumb2
                {
                  OFFSET -3.37035 -0.52449 3.41376
                  CHANNELS 3 Zrotation Xrotation Yrotation
                  End Site
                  {
                    OFFSET -1.78271 -1.18214 1.43049
                  }
                }
              }
              JOINT rIndex1
              {
                OFFSET -7.75947 0.938293 5.60832
                CHANNELS 3 Zrotation Xrotation Yrotation
                JOINT rIndex2
                {
                  OFFSET -2.54057 -0.884171 1.56538
                  CHANNELS 3 Zrotation Xrotation Yrotation
                  End Site
                  {
                    OFFSET -1.62519 -0.234802 1.16502
                  }
                }
              }
              JOINT rMid1
              {
                OFFSET -8.24714 1.18213 3.41376
                CHANNELS 3 Zrotation Xrotation Yrotation
                JOINT rMid2
                {
                  OFFSET -3.10165 -0.590103 1.0647
                  CHANNELS 3 Zrotation Xrotation Yrotation
                  End Site
                  {
                    OFFSET -2.48547 -0.328903 0.83742
                  }
                }
              }
              JOINT rRing1
              {
                OFFSET -8.82822 0.546677 1.51678
                CHANNELS 3 Zrotation Xrotation Yrotation
                JOINT rRing2
                {
                  OFFSET -2.60934 -0.819778 -0.0198488
                  CHANNELS 3 Zrotation Xrotation Yrotation
                  End Site
                  {
                    OFFSET -2.33842 -0.294052 0.168128
                  }
                }
              }
              JOINT rPinky1
              {
                OFFSET -8.27202 -0.0477905 -0.4584
                CHANNELS 3 Zrotation Xrotation Yrotation
                JOINT rPinky2
                {
                  OFFSET -1.82734 -0.647385 -0.700984
                  CHANNELS 3 Zrotation Xrotation Yrotation
                  End Site
                  {
                    OFFSET -1.69225 -0.51767 -0.607171
                  }
                }
              }
            }
          }
        }
      }
      JOINT lCollar
      {
        OFFSET 2.68224 19.2634 -4.8768
        CHANNELS 3 Zrotation Xrotation Yrotation
        JOINT lShldr
        {
          OFFSET 8.77824 -1.95073 1.46304
          CHANNELS 3 Zrotation Xrotation Yrotation
          JOINT lForeArm
          {
            OFFSET 28.1742 -1.7115 0.48768
            CHANNELS 3 Zrotation Xrotation Yrotation
            JOINT lHand
            {
              OFFSET 22.5879 0.773209 7.07136
              CHANNELS 3 Zrotation Xrotation Yrotation
              JOINT lThumb1
              {
                OFFSET 1.2192 -0.487915 3.41376
                CHANNELS 3 Zrotation Xrotation Yrotation
                JOINT lThumb2
                {
                  OFFSET 3.37035 -0.52449 3.41376
                  CHANNELS 3 Zrotation Xrotation Yrotation
                  End Site
                  {
                    OFFSET 1.78271 -1.18214 1.43049
                  }
                }
              }
              JOINT lIndex1
              {
                OFFSET 7.75947 0.938293 5.60832
                CHANNELS 3 Zrotation Xrotation Yrotation
                JOINT lIndex2
                {
                  OFFSET 2.54057 -0.884171 1.56538
                  CHANNELS 3 Zrotation Xrotation Yrotation
                  End Site
                  {
                    OFFSET 1.62519 -0.234802 1.16502
                  }
                }
              }
              JOINT lMid1
              {
                OFFSET 8.24714 1.18213 3.41376
                CHANNELS 3 Zrotation Xrotation Yrotation
                JOINT lMid2
                {
                  OFFSET 3.10165 -0.590103 1.0647
                  CHANNELS 3 Zrotation Xrotation Yrotation
                  End Site
                  {
                    OFFSET 2.48547 -0.328903 0.83742
                  }
                }
              }
              JOINT lRing1
              {
                OFFSET 8.82822 0.546677 1.51678
                CHANNELS 3 Zrotation Xrotation Yrotation
                JOINT lRing2
                {
                  OFFSET 2.60934 -0.819778 -0.0198488
                  CHANNELS 3 Zrotation Xrotation Yrotation
                  End Site
                  {
                    OFFSET 2.33842 -0.294052 0.168128
                  }
                }
              }
              JOINT lPinky1
              {
                OFFSET 8.27202 -0.0477905 -0.4584
                CHANNELS 3 Zrotation Xrotation Yrotation
                JOINT lPinky2
                {
                  OFFSET 1.82734 -0.647385 -0.700984
                  CHANNELS 3 Zrotation Xrotation Yrotation
                  End Site
                  {
                    OFFSET 1.69225 -0.51767 -0.607171
                  }
                }
              }
            }
          }
        }
      }
    }
  }
  JOINT rButtock
  {
    OFFSET -8.77824 4.35084 1.2192
    CHANNELS 3 Zrotation Xrotation Yrotation
    JOINT rThigh
    {
      OFFSET 0 -1.70687 -2.19456
      CHANNELS 3 Zrotation Xrotation Yrotation
      JOINT rShin
      {
        OFFSET 0 -36.8199 0.73152
        CHANNELS 3 Zrotation Xrotation Yrotation
        JOINT rFoot
        {
          OFFSET 0.73152 -45.1104 -5.12064
          CHANNELS 3 Zrotation Xrotation Yrotation
          End Site
          {
            OFFSET -1.1221 -3.69964 12.103
          }
        }
      }
    }
  }
  JOINT lButtock
  {
    OFFSET 8.77824 4.35084 1.2192
    CHANNELS 3 Zrotation Xrotation Yrotation
    JOINT lThigh
    {
      OFFSET 0 -1.70687 -2.19456
      CHANNELS 3 Zrotation Xrotation Yrotation
      JOINT lShin
      {
        OFFSET 0 -36.8199 0.73152
        CHANNELS 3 Zrotation Xrotation Yrotation
        JOINT lFoot
        {
          OFFSET -0.73152 -45.1104 -5.12064
          CHANNELS 3 Zrotation Xrotation Yrotation
          End Site
          {
            OFFSET 1.1221 -3.69964 12.103
          }
        }
      }
    }
  }
}
MOTION
Frames:	8
Frame Time:	0.00833333
-188.804 51.4167 82.4913 2.38033 0.0111357 -0.0455953 -3.13103 0.00208559 -0.0844984 -0.863185 0.0181959 -0.149324 -1.61347e-014 0 -2.48481e-016 -4.79288e-014 3.18055e-015 -9.47333e-016 -0 0 0 -0 0 0 -8.45004e-015 -1.47535e-017 0 -1.67841e-013 -7.01958e-016 -2.5842e-015 -2.90101e-012 8.61334e-013 -4.13472e-014 -3.33261e-011 -9.47085e-013 -6.23389e-013 -7.85856e-011 -1.7986e-013 -1.43761e-012 -1.35723e-010 -3.11694e-013 -2.4856e-012 -7.858e-011 -1.78509e-013 -1.44397e-012 7.73091 5.47488 0.417314 -7.85845e-011 -1.79801e-013 -1.43761e-012 2.90554 0.965183 0.102902 -7.8582e-011 -1.79503e-013 -1.4392e-012 10.2786 0.731801 0.0259123 -7.85923e-011 -1.79701e-013 -1.42489e-012 2.22167 -0.733487 -0.20892 -8.54656e-015 -2.29068e-017 -2.98177e-016 -1.72178e-013 -4.9075e-016 -4.77083e-015 -2.92094e-012 -8.83797e-013 -2.54444e-014 -3.33168e-011 8.01897e-013 -6.42472e-013 -7.86064e-011 -1.7613e-013 -1.43761e-012 -1.35736e-010 -2.98972e-013 -2.48004e-012 -7.86122e-011 -1.75726e-013 -1.44397e-012 -7.73091 5.47488 -0.417314 -7.86062e-011 -1.76024e-013 -1.43761e-012 -2.90554 0.965183 -0.102902 -7.86116e-011 -1.75726e-013 -1.44079e-012 -10.2786 0.731801 -0.0259123 -7.86066e-011 -1.74931e-013 -1.44715e-012 -2.22167 -0.733487 0.20892 -2.03217e-016 0 -3.88251e-019 -1.92106 -1.93503 0.0146623 -0.00848402 -2.07867 -0.0696143 -0.456261 4.00012 0.132103 2.03217e-016 0 3.88251e-019 -2.84052 -9.326 0.322538 -0.00901034 11.3074 -0.234944 0.529782 -1.99489 -0.0185993 
-185.307 49.7135 84.7147 2.35095 -2.16088 14.0228 1.93467 14.5876 5.77245 -1.68944 0.820793 2.10088 -1.20101 3.2692 -2.66419 6.8862 -14.0394 -2.16756 -0 0 0 -0 0 0 -1.91831e-013 -1.04489e-012 1.67447e-013 12.3055 -5.73603 10.819 -3.78353 -1.62233 6.03861 0.0234084 3.65273 0.510205 4.76582e-010 -8.64609e-010 6.59384e-010 8.33639e-010 -1.48391e-009 1.13182e-009 4.7659e-010 -8.64602e-010 6.59368e-010 7.73091 5.47488 0.417314 4.76583e-010 -8.64608e-010 6.59381e-010 2.90554 0.965183 0.102902 4.76586e-010 -8.64608e-010 6.59381e-010 10.2786 0.731801 0.0259123 4.76575e-010 -8.64608e-010 6.59393e-010 2.22167 -0.733487 -0.20892 -1.91966e-013 -1.04489e-012 1.67179e-013 -25.5044 18.6539 7.51745 7.18963 -4.19997 -10.033 -0.0775811 -6.18983 0.851743 3.06549e-009 -1.75761e-010 -2.09144e-009 5.32939e-009 -3.04015e-010 -3.56998e-009 3.06549e-009 -1.7576e-010 -2.09145e-009 -7.73091 5.47488 -0.417314 3.06549e-009 -1.75761e-010 -2.09144e-009 -2.90554 0.965183 -0.102902 3.06549e-009 -1.75761e-010 -2.09145e-009 -10.2786 0.731801 -0.0259123 3.06549e-009 -1.75761e-010 -2.09145e-009 -2.22167 -0.733487 0.20892 -2.03217e-016 0 -3.88251e-019 -12.2556 -1.60977 4.68712 0.303686 13.311 0.332427 0.511171 -3.18652 3.70165 2.03217e-016 0 3.88251e-019 5.90724 -21.4498 4.00104 -0.292244 19.9069 -0.793978 -1.34549 6.90472 -1.20576 
-182.12 49.758 84.1162 3.47806 -4.01065 29.0393 3.62471 29.5413 13.3973 -2.61316 1.67692 4.5021 -2.13893 6.69136 -5.51916 12.7829 -28.787 -4.99984 -0 0 0 -0 0 0 -4.04547e-013 -2.19549e-012 3.55458e-013 27.8935 -11.5186 22.6459 -7.29645 -3.18709 12.283 -0.0262956 7.66876 1.07875 1.13263e-009 -1.78872e-009 1.36783e-009 1.97849e-009 -3.06936e-009 2.34732e-009 1.13264e-009 -1.78871e-009 1.3678e-009 7.73091 5.47488 0.417314 1.13263e-009 -1.78872e-009 1.36782e-009 2.90554 0.965183 0.102902 1.13263e-009 -1.78872e-009 1.36783e-009 10.2786 0.731801 0.0259123 1.13262e-009 -1.78872e-009 1.36784e-009 2.22167 -0.733487 -0.20892 -4.04723e-013 -2.19549e-012 3.55222e-013 -58.9224 37.2097 18.636 13.2268 -8.22514 -20.8274 0.0453594 -12.7569 1.78981 6.65033e-009 -3.55761e-010 -4.42175e-009 1.15597e-008 -6.15555e-010 -7.54643e-009 6.65032e-009 -3.5576e-010 -4.42176e-009 -7.73091 5.47488 -0.417314 6.65033e-009 -3.55761e-010 -4.42176e-009 -2.90554 0.965183 -0.102902 6.65032e-009 -3.55761e-010 -4.42176e-009 -10.2786 0.731801 -0.0259123 6.65033e-009 -3.55763e-010 -4.42176e-009 -2.22167 -0.733487 0.20892 -2.03217e-016 0 -3.88251e-019 -23.1795 -1.29735 9.67098 0.363714 29.7044 0.837806 2.56896 -10.9131 7.76843 2.03217e-016 0 3.88251e-019 17.1401 -33.9848 8.83606 -0.377239 28.7602 -1.47875 -2.90469 16.4864 -2.55061 
-178.919 49.6606 83.45 5.18187 -4.96669 42.3247 0.752673 41.6232 22.9216 -3.53075 2.41154 6.60651 -2.68296 9.7222 -8.0966 16.5575 -41.8338 -8.48047 -0 0 0 -0 0 0 -5.58593e-013 -3.13463e-012 5.02342e-013 43.2054 -14.7404 33.5335 -10.3408 -4.65119 18.1705 -0.127993 10.9547 1.55586 1.58692e-009 -2.59347e-009 1.98103e-009 2.77236e-009 -4.45111e-009 3.40043e-009 1.58693e-009 -2.59345e-009 1.98099e-009 7.73091 5.47488 0.417314 1.58692e-009 -2.59347e-009 1.98102e-009 2.90554 0.965183 0.102902 1.58692e-009 -2.59347e-009 1.98102e-009 10.2786 0.731801 0.0259123 1.58691e-009 -2.59346e-009 1.98103e-009 2.22167 -0.733487 -0.20892 -5.58805e-013 -3.13463e-012 5.02132e-013 -98.0074 50.8792 35.2605 17.3144 -11.0554 -30.6454 0.344893 -18.5526 2.67968 9.35369e-009 -5.26931e-010 -6.27145e-009 1.62597e-008 -9.11448e-010 -1.0705e-008 9.35369e-009 -5.26929e-010 -6.27145e-009 -7.73091 5.47488 -0.417314 9.35368e-009 -5.2693e-010 -6.27146e-009 -2.90554 0.965183 -0.102902 9.35368e-009 -5.26931e-010 -6.27145e-009 -10.2786 0.731801 -0.0259123 9.35369e-009 -5.26934e-010 -6.27146e-009 -2.22167 -0.733487 0.20892 -2.03217e-016 0 -3.88251e-019 -33.0832 -0.946361 14.0285 0.0778231 44.0804 1.54475 5.21451 -17.2571 11.341 2.03217e-016 0 3.88251e-019 29.7734 -44.8543 14.9449 -0.232264 37.0901 -2.23019 -3.89851 24.6578 -3.91096 
-175.801 49.5411 82.7655 6.42961 -5.18286 51.1335 -4.38498 48.6326 31.759 -4.29292 2.85733 7.96345 -2.89493 11.8568 -9.88178 18.2723 -50.919 -11.7252 -0 0 0 -0 0 0 -5.65966e-013 -3.54513e-012 5.46409e-013 52.6876 -14.3899 40.7677 -12.7806 -6.01139 23.1313 -0.193 12.4197 1.77362 1.53681e-009 -3.09978e-009 2.35609e-009 2.6888e-009 -5.32363e-009 4.04754e-009 1.53682e-009 -3.09976e-009 2.35606e-009 7.73091 5.47488 0.417314 1.53681e-009 -3.09977e-009 2.35608e-009 2.90554 0.965183 0.102902 1.53681e-009 -3.09977e-009 2.35609e-009 10.2786 0.731801 0.0259123 1.5368e-009 -3.09977e-009 2.35609e-009 2.22167 -0.733487 -0.20892 -5.662e-013 -3.54513e-012 5.46211e-013 -132.723 57.2259 52.5794 19.5051 -12.4019 -37.4918 0.66001 -22.4365 3.32683 9.85336e-009 -6.76024e-010 -6.91961e-009 1.71338e-008 -1.16822e-009 -1.18187e-008 9.85336e-009 -6.76021e-010 -6.91961e-009 -7.73091 5.47488 -0.417314 9.85336e-009 -6.76022e-010 -6.91962e-009 -2.90554 0.965183 -0.102902 9.85335e-009 -6.76023e-010 -6.91962e-009 -10.2786 0.731801 -0.0259123 9.85336e-009 -6.76027e-010 -6.91962e-009 -2.22167 -0.733487 0.20892 -2.03217e-016 0 -3.88251e-019 -40.3506 -0.508413 16.8222 -0.471686 53.4206 2.4098 7.00609 -20.5265 13.0262 2.03217e-016 0 3.88251e-019 41.1526 -52.276 21.2391 0.0587426 44.1247 -2.91671 -4.418 29.351 -4.94715 
-172.397 48.9834 81.9866 6.39767 -5.33331 53.6711 -6.166 50.5336 34.6651 -4.87029 2.93889 8.28305 -2.91268 12.7897 -10.4675 19.6463 -54.6916 -12.5387 -0 0 0 -0 0 0 -3.05675e-013 -3.13773e-012 4.07753e-013 51.8895 -10.3497 42.5098 -14.4808 -7.16042 26.7482 -0.210005 11.8564 1.68533 6.3316e-010 -3.3201e-009 2.5034e-009 1.11866e-009 -5.71454e-009 4.31154e-009 6.3317e-010 -3.32008e-009 2.50337e-009 7.73091 5.47488 0.417314 6.33158e-010 -3.3201e-009 2.5034e-009 2.90554 0.965183 0.102902 6.33167e-010 -3.3201e-009 2.5034e-009 10.2786 0.731801 0.0259123 6.33155e-010 -3.3201e-009 2.50341e-009 2.22167 -0.733487 -0.20892 -3.05915e-013 -3.13773e-012 4.0754e-013 -147.534 59.1436 59.1406 20.1664 -12.6825 -39.9598 0.830269 -24.0594 3.61515 6.48225e-009 -9.268e-010 -5.68347e-009 1.12909e-008 -1.59895e-009 -9.72933e-009 6.48224e-009 -9.26796e-010 -5.68346e-009 -7.73091 5.47488 -0.417314 6.48225e-009 -9.26796e-010 -5.68347e-009 -2.90554 0.965183 -0.102902 6.48224e-009 -9.26796e-010 -5.68347e-009 -10.2786 0.731801 -0.0259123 6.48225e-009 -9.268e-010 -5.68347e-009 -2.22167 -0.733487 0.20892 -2.03217e-016 0 -3.88251e-019 -44.0066 0.24809 17.5624 -0.775383 55.4477 3.00659 6.67306 -19.483 11.7096 2.03217e-016 0 3.88251e-019 47.27 -55.6227 24.6799 0.283427 49.3437 -3.34784 -4.79667 29.2355 -5.27547 
-168.866 47.904 81.1608 5.36214 -5.67601 51.7355 -3.99308 49.3953 32.0081 -5.30258 2.76067 7.8605 -2.86324 12.8809 -10.1769 21.6976 -54.7479 -10.7758 -0 0 0 -0 0 0 1.42835e-013 -2.14982e-012 1.40426e-013 44.0852 -3.67233 40.9651 -15.6993 -8.18461 29.4065 -0.201603 9.81917 1.37835 -8.73143e-010 -3.32987e-009 2.483e-009 -1.50102e-009 -5.75045e-009 4.29307e-009 -8.73137e-010 -3.32986e-009 2.48299e-009 7.73091 5.47488 0.417314 -8.73145e-010 -3.32987e-009 2.483e-009 2.90554 0.965183 0.102902 -8.73134e-010 -3.32987e-009 2.483e-009 10.2786 0.731801 0.0259123 -8.73145e-010 -3.32987e-009 2.483e-009 2.22167 -0.733487 -0.20892 1.42601e-013 -2.14984e-012 1.4018e-013 -144.88 59.8833 55.1561 19.9329 -12.4607 -39.2676 0.846077 -24.0514 3.6182 3.83698e-010 -1.24389e-009 -3.11101e-009 7.14973e-010 -2.14305e-009 -5.36827e-009 3.83692e-010 -1.24389e-009 -3.11099e-009 -7.73091 5.47488 -0.417314 3.83698e-010 -1.24389e-009 -3.11101e-009 -2.90554 0.965183 -0.102902 3.83693e-010 -1.24389e-009 -3.11101e-009 -10.2786 0.731801 -0.0259123 3.83697e-010 -1.24389e-009 -3.11101e-009 -2.22167 -0.733487 0.20892 -2.03217e-016 0 -3.88251e-019 -45.0359 1.23461 16.8331 -0.612165 52.2706 3.15758 5.13959 -15.277 8.37215 2.03217e-016 0 3.88251e-019 48.1914 -56.375 24.8241 0.361036 53.2706 -3.52129 -5.1497 25.6924 -5.06047 
-165.999 47.5202 80.3845 4.03128 -6.03861 47.9824 -1.03251 47.0066 27.5571 -5.53601 2.42899 7.12143 -2.82649 12.6423 -9.57014 24.0148 -53.3593 -8.06516 -0 0 0 -0 0 0 5.66923e-013 -1.05419e-012 -1.1632e-013 34.7998 3.86732 38.9749 -16.8371 -9.36204 31.7514 -0.135752 6.36036 0.880159 -2.38469e-009 -3.04451e-009 2.22652e-009 -4.12746e-009 -5.2742e-009 3.86516e-009 -2.38469e-009 -3.0445e-009 2.22652e-009 7.73091 5.47488 0.417314 -2.38469e-009 -3.0445e-009 2.22652e-009 2.90554 0.965183 0.102902 -2.38468e-009 -3.0445e-009 2.22652e-009 10.2786 0.731801 0.0259123 -2.38469e-009 -3.0445e-009 2.22652e-009 2.22167 -0.733487 -0.20892 5.66702e-013 -1.05422e-012 -1.166e-013 -135.162 59.9942 46.8587 19.3114 -12.0052 -37.297 0.732597 -22.7457 3.392 -5.54883e-009 -1.37537e-009 -3.27483e-010 -9.57685e-009 -2.36653e-009 -6.43065e-010 -5.54884e-009 -1.37536e-009 -3.27461e-010 -7.73091 5.47488 -0.417314 -5.54883e-009 -1.37536e-009 -3.27481e-010 -2.90554 0.965183 -0.102902 -5.54883e-009 -1.37536e-009 -3.27482e-010 -10.2786 0.731801 -0.0259123 -5.54883e-009 -1.37536e-009 -3.27486e-010 -2.22167 -0.733487 0.20892 -2.03217e-016 0 -3.88251e-019 -44.7647 2.01773 15.3021 -0.271562 47.4499 3.11908 3.79631 -10.0199 4.38172 2.03217e-016 0 3.88251e-019 46.7202 -56.0565 23.818 0.371044 56.7012 -3.55609 -5.38313 20.7361 -4.64254 
